G75*
G70*
%OFA0B0*%
%FSLAX24Y24*%
%IPPOS*%
%LPD*%
%AMOC8*
5,1,8,0,0,1.08239X$1,22.5*
%
%ADD10OC8,0.0640*%
%ADD11OC8,0.0694*%
%ADD12OC8,0.0984*%
%ADD13OC8,0.0720*%
%ADD14OC8,0.0680*%
%ADD15OC8,0.0760*%
%ADD16C,0.0128*%
%ADD17C,0.0300*%
%ADD18C,0.0240*%
%ADD19OC8,0.0660*%
%ADD20C,0.0320*%
%ADD21C,0.0400*%
%ADD22C,0.0200*%
%ADD23OC8,0.0700*%
D10*
X007159Y003605D03*
X007159Y004605D03*
X010909Y007105D03*
X011909Y007105D03*
X010109Y008005D03*
X008159Y008955D03*
X006159Y008955D03*
X006109Y008005D03*
X007159Y010605D03*
X008159Y010605D03*
X008159Y013105D03*
X007159Y013105D03*
X009159Y013105D03*
X010159Y013105D03*
X014159Y013405D03*
X015159Y013405D03*
X016159Y013405D03*
X017159Y013405D03*
X018159Y013405D03*
X019159Y013405D03*
X020159Y013405D03*
X021159Y013405D03*
X022159Y013405D03*
X023159Y013405D03*
X024159Y013405D03*
X025159Y013405D03*
X026159Y013405D03*
X027159Y013405D03*
X027159Y010405D03*
X026159Y010405D03*
X025159Y010405D03*
X024159Y010405D03*
X023159Y010405D03*
X022159Y010405D03*
X021159Y010405D03*
X020159Y010405D03*
X019159Y010405D03*
X018159Y010405D03*
X017159Y010405D03*
X016159Y010405D03*
X015159Y010405D03*
X014159Y010405D03*
X018409Y009355D03*
X019159Y009355D03*
X021159Y009355D03*
X018409Y005355D03*
X017959Y015105D03*
X019859Y015105D03*
X011409Y019555D03*
X010159Y018605D03*
X010159Y017855D03*
X010159Y017105D03*
X009159Y017105D03*
X008159Y017105D03*
X007159Y017105D03*
X007159Y017855D03*
X007159Y018605D03*
X007409Y019555D03*
X007409Y020805D03*
X008409Y020805D03*
D11*
X006013Y018097D03*
X005226Y018097D03*
X005226Y017113D03*
X006013Y017113D03*
D12*
X005533Y003605D03*
X003112Y003605D03*
X004352Y001636D03*
D13*
X004659Y006105D03*
X003659Y006105D03*
X002659Y006105D03*
X015159Y001605D03*
X016159Y001605D03*
X017159Y001605D03*
X018159Y001605D03*
X019159Y001605D03*
X021159Y001605D03*
X022159Y001605D03*
X023159Y001605D03*
X024159Y001605D03*
X025159Y001605D03*
X026159Y001605D03*
X027119Y017075D03*
X028899Y017075D03*
X028899Y019635D03*
X027119Y019635D03*
X026159Y020605D03*
X025159Y020605D03*
X024159Y020605D03*
X023159Y020605D03*
X022159Y020605D03*
X021159Y020605D03*
X020159Y020605D03*
X019159Y020605D03*
X017159Y020605D03*
X016159Y020605D03*
X015159Y020605D03*
X014159Y020605D03*
X013159Y020605D03*
X012159Y020605D03*
X011159Y020605D03*
X010159Y020605D03*
D14*
X006159Y014105D03*
X006159Y013105D03*
X006159Y012105D03*
X009159Y011355D03*
X009159Y010355D03*
X009159Y009355D03*
D15*
X010059Y002455D03*
X006059Y002455D03*
D16*
X018614Y016709D02*
X018550Y016645D01*
X018550Y016857D01*
X018699Y017006D01*
X018911Y017006D01*
X019060Y016857D01*
X019060Y016645D01*
X018911Y016496D01*
X018699Y016496D01*
X018550Y016645D01*
X018646Y016685D01*
X018646Y016817D01*
X018739Y016910D01*
X018871Y016910D01*
X018964Y016817D01*
X018964Y016685D01*
X018871Y016592D01*
X018739Y016592D01*
X018646Y016685D01*
X018742Y016725D01*
X018742Y016777D01*
X018779Y016814D01*
X018831Y016814D01*
X018868Y016777D01*
X018868Y016725D01*
X018831Y016688D01*
X018779Y016688D01*
X018742Y016725D01*
X019322Y017416D02*
X019258Y017352D01*
X019258Y017564D01*
X019407Y017713D01*
X019619Y017713D01*
X019768Y017564D01*
X019768Y017352D01*
X019619Y017203D01*
X019407Y017203D01*
X019258Y017352D01*
X019354Y017392D01*
X019354Y017524D01*
X019447Y017617D01*
X019579Y017617D01*
X019672Y017524D01*
X019672Y017392D01*
X019579Y017299D01*
X019447Y017299D01*
X019354Y017392D01*
X019450Y017432D01*
X019450Y017484D01*
X019487Y017521D01*
X019539Y017521D01*
X019576Y017484D01*
X019576Y017432D01*
X019539Y017395D01*
X019487Y017395D01*
X019450Y017432D01*
X019864Y016659D02*
X019800Y016595D01*
X019800Y016807D01*
X019949Y016956D01*
X020161Y016956D01*
X020310Y016807D01*
X020310Y016595D01*
X020161Y016446D01*
X019949Y016446D01*
X019800Y016595D01*
X019896Y016635D01*
X019896Y016767D01*
X019989Y016860D01*
X020121Y016860D01*
X020214Y016767D01*
X020214Y016635D01*
X020121Y016542D01*
X019989Y016542D01*
X019896Y016635D01*
X019992Y016675D01*
X019992Y016727D01*
X020029Y016764D01*
X020081Y016764D01*
X020118Y016727D01*
X020118Y016675D01*
X020081Y016638D01*
X020029Y016638D01*
X019992Y016675D01*
X020572Y017366D02*
X020508Y017302D01*
X020508Y017514D01*
X020657Y017663D01*
X020869Y017663D01*
X021018Y017514D01*
X021018Y017302D01*
X020869Y017153D01*
X020657Y017153D01*
X020508Y017302D01*
X020604Y017342D01*
X020604Y017474D01*
X020697Y017567D01*
X020829Y017567D01*
X020922Y017474D01*
X020922Y017342D01*
X020829Y017249D01*
X020697Y017249D01*
X020604Y017342D01*
X020700Y017382D01*
X020700Y017434D01*
X020737Y017471D01*
X020789Y017471D01*
X020826Y017434D01*
X020826Y017382D01*
X020789Y017345D01*
X020737Y017345D01*
X020700Y017382D01*
D17*
X000909Y020442D02*
X000909Y001768D01*
X001007Y001824D01*
X001272Y001895D01*
X001546Y001895D01*
X001811Y001824D01*
X002048Y001687D01*
X002242Y001494D01*
X002379Y001256D01*
X002450Y000992D01*
X002450Y000718D01*
X002379Y000453D01*
X002322Y000355D01*
X009853Y000355D01*
X009576Y000632D01*
X009489Y000841D01*
X009489Y001068D01*
X009489Y001851D01*
X009229Y002111D01*
X009229Y002799D01*
X009409Y002978D01*
X009409Y003935D01*
X009390Y003955D01*
X007615Y003955D01*
X007729Y003841D01*
X007729Y003605D01*
X007159Y003605D01*
X007159Y003604D01*
X007159Y003035D01*
X007395Y003035D01*
X007729Y003369D01*
X007729Y003604D01*
X007159Y003604D01*
X007159Y003604D01*
X007159Y003035D01*
X006923Y003035D01*
X006680Y003277D01*
X006709Y003208D01*
X006709Y002978D01*
X006889Y002799D01*
X006889Y002111D01*
X006403Y001625D01*
X005715Y001625D01*
X005229Y002111D01*
X005229Y002663D01*
X005143Y002663D01*
X004591Y003214D01*
X004591Y003995D01*
X005051Y004455D01*
X003038Y004455D01*
X002780Y004455D01*
X002541Y004554D01*
X002291Y004804D01*
X002108Y004986D01*
X002009Y005225D01*
X002009Y005609D01*
X001849Y005769D01*
X001849Y006440D01*
X002324Y006915D01*
X002995Y006915D01*
X003300Y006609D01*
X003406Y006715D01*
X003659Y006715D01*
X003659Y006105D01*
X003659Y006105D01*
X003659Y006715D01*
X003912Y006715D01*
X004018Y006609D01*
X004324Y006915D01*
X004509Y006915D01*
X004509Y010484D01*
X004608Y010723D01*
X004791Y010906D01*
X004791Y010906D01*
X005509Y011624D01*
X005509Y011637D01*
X005369Y011777D01*
X005369Y012432D01*
X005542Y012605D01*
X005369Y012777D01*
X005369Y013432D01*
X005542Y013605D01*
X005369Y013777D01*
X005369Y014432D01*
X005559Y014622D01*
X005559Y016440D01*
X005478Y016521D01*
X005473Y016516D01*
X005226Y016516D01*
X005226Y016773D01*
X005226Y016773D01*
X005226Y016516D01*
X004979Y016516D01*
X004629Y016865D01*
X004629Y017112D01*
X005216Y017112D01*
X005216Y017113D01*
X004629Y017113D01*
X004629Y017360D01*
X004732Y017463D01*
X004429Y017767D01*
X004429Y018427D01*
X004656Y018654D01*
X004656Y018785D01*
X004743Y018995D01*
X004926Y019178D01*
X005086Y019338D01*
X005296Y019425D01*
X006639Y019425D01*
X006639Y019874D01*
X006839Y020074D01*
X006839Y020286D01*
X006639Y020486D01*
X006639Y021124D01*
X007090Y021575D01*
X007728Y021575D01*
X008050Y021252D01*
X008173Y021375D01*
X008409Y021375D01*
X008409Y020805D01*
X008409Y020805D01*
X008409Y021375D01*
X008645Y021375D01*
X008979Y021041D01*
X008979Y020805D01*
X008409Y020805D01*
X008409Y020804D01*
X008409Y020235D01*
X008645Y020235D01*
X008979Y020569D01*
X008979Y020804D01*
X008409Y020804D01*
X008409Y020804D01*
X008409Y020235D01*
X008173Y020235D01*
X008050Y020357D01*
X007979Y020286D01*
X007979Y020074D01*
X008179Y019874D01*
X008179Y019236D01*
X008006Y019063D01*
X008482Y018588D01*
X008642Y018428D01*
X008729Y018218D01*
X008729Y017764D01*
X008840Y017875D01*
X009478Y017875D01*
X009589Y017764D01*
X009589Y017854D01*
X009820Y017854D01*
X009820Y017855D01*
X009589Y017855D01*
X009589Y018091D01*
X009728Y018230D01*
X009589Y018369D01*
X009589Y018604D01*
X010159Y018604D01*
X010159Y018425D01*
X010159Y018604D01*
X010159Y018604D01*
X010159Y018605D01*
X009589Y018605D01*
X009589Y018841D01*
X009923Y019175D01*
X010061Y019175D01*
X009847Y019388D01*
X009693Y019543D01*
X009609Y019745D01*
X009609Y020009D01*
X009349Y020269D01*
X009349Y020940D01*
X009824Y021415D01*
X010495Y021415D01*
X010800Y021109D01*
X010906Y021215D01*
X011159Y021215D01*
X011159Y020605D01*
X011159Y020605D01*
X011159Y021215D01*
X011412Y021215D01*
X011518Y021109D01*
X011824Y021415D01*
X012495Y021415D01*
X012659Y021250D01*
X012824Y021415D01*
X013495Y021415D01*
X013659Y021250D01*
X013824Y021415D01*
X014495Y021415D01*
X014659Y021250D01*
X014824Y021415D01*
X015495Y021415D01*
X015659Y021250D01*
X015824Y021415D01*
X016495Y021415D01*
X016659Y021250D01*
X016824Y021415D01*
X017495Y021415D01*
X017969Y020940D01*
X017969Y020269D01*
X017729Y020029D01*
X017729Y019452D01*
X018447Y020171D01*
X018349Y020269D01*
X018349Y020940D01*
X018824Y021415D01*
X019495Y021415D01*
X019659Y021250D01*
X019824Y021415D01*
X020495Y021415D01*
X020659Y021250D01*
X020824Y021415D01*
X021495Y021415D01*
X021659Y021250D01*
X021824Y021415D01*
X022495Y021415D01*
X022659Y021250D01*
X022824Y021415D01*
X023495Y021415D01*
X023659Y021250D01*
X023824Y021415D01*
X024495Y021415D01*
X024659Y021250D01*
X024824Y021415D01*
X025495Y021415D01*
X025659Y021250D01*
X025824Y021415D01*
X026495Y021415D01*
X026969Y020940D01*
X026969Y020445D01*
X027455Y020445D01*
X027929Y019970D01*
X027929Y019299D01*
X027689Y019059D01*
X027689Y017650D01*
X027929Y017410D01*
X027929Y016739D01*
X027698Y016508D01*
X027727Y014652D01*
X027729Y014648D01*
X027729Y014540D01*
X027731Y014430D01*
X027729Y014426D01*
X027729Y013924D01*
X027929Y013724D01*
X027929Y013086D01*
X027478Y012635D01*
X026840Y012635D01*
X026659Y012816D01*
X026478Y012635D01*
X025840Y012635D01*
X025659Y012816D01*
X025478Y012635D01*
X024939Y012635D01*
X024939Y012032D01*
X024482Y011575D01*
X023836Y011575D01*
X023379Y012032D01*
X023379Y012635D01*
X022939Y012635D01*
X022939Y012282D01*
X022482Y011825D01*
X021959Y011825D01*
X021959Y011773D01*
X021490Y011305D01*
X020828Y011305D01*
X020359Y011773D01*
X020359Y012436D01*
X020559Y012636D01*
X020559Y012916D01*
X020518Y012957D01*
X020395Y012835D01*
X020159Y012835D01*
X020159Y013404D01*
X020159Y013404D01*
X020159Y012835D01*
X019923Y012835D01*
X019800Y012957D01*
X019478Y012635D01*
X018840Y012635D01*
X018659Y012816D01*
X018478Y012635D01*
X017840Y012635D01*
X017659Y012816D01*
X017478Y012635D01*
X016840Y012635D01*
X016659Y012816D01*
X016478Y012635D01*
X015840Y012635D01*
X015769Y012706D01*
X015769Y011848D01*
X015939Y011678D01*
X015939Y011175D01*
X016478Y011175D01*
X016659Y010994D01*
X016840Y011175D01*
X017478Y011175D01*
X017659Y010994D01*
X017840Y011175D01*
X018478Y011175D01*
X018659Y010994D01*
X018840Y011175D01*
X019478Y011175D01*
X019659Y010994D01*
X019840Y011175D01*
X020478Y011175D01*
X020800Y010852D01*
X020923Y010975D01*
X021159Y010975D01*
X021159Y010405D01*
X021159Y010405D01*
X021159Y010975D01*
X021395Y010975D01*
X021518Y010852D01*
X021840Y011175D01*
X022478Y011175D01*
X022659Y010994D01*
X022840Y011175D01*
X023478Y011175D01*
X023659Y010994D01*
X023840Y011175D01*
X024478Y011175D01*
X024659Y010994D01*
X024840Y011175D01*
X025478Y011175D01*
X025659Y010994D01*
X025840Y011175D01*
X026478Y011175D01*
X026659Y010994D01*
X026840Y011175D01*
X027478Y011175D01*
X027929Y010724D01*
X027929Y010086D01*
X027729Y009886D01*
X027729Y003718D01*
X027729Y003491D01*
X027642Y003282D01*
X026729Y002369D01*
X026729Y002180D01*
X026969Y001940D01*
X026969Y001269D01*
X026495Y000795D01*
X025824Y000795D01*
X025659Y000959D01*
X025495Y000795D01*
X024824Y000795D01*
X024659Y000959D01*
X024495Y000795D01*
X023824Y000795D01*
X023659Y000959D01*
X023495Y000795D01*
X022824Y000795D01*
X022659Y000959D01*
X022495Y000795D01*
X021824Y000795D01*
X021659Y000959D01*
X021495Y000795D01*
X020824Y000795D01*
X020349Y001269D01*
X020349Y001940D01*
X020589Y002180D01*
X020589Y002718D01*
X020676Y002928D01*
X020836Y003088D01*
X021589Y003841D01*
X021589Y008979D01*
X021395Y008785D01*
X021159Y008785D01*
X021159Y009354D01*
X021159Y009354D01*
X021159Y008785D01*
X020923Y008785D01*
X020725Y008982D01*
X020642Y008782D01*
X019142Y007282D01*
X018982Y007121D01*
X018772Y007035D01*
X013022Y007035D01*
X012796Y007035D01*
X012586Y007121D01*
X012479Y007229D01*
X012479Y007105D01*
X011909Y007105D01*
X011909Y007675D01*
X011673Y007675D01*
X011550Y007552D01*
X011228Y007875D01*
X011030Y007875D01*
X010879Y008046D01*
X010879Y008324D01*
X010428Y008775D01*
X009790Y008775D01*
X009339Y008324D01*
X009339Y007686D01*
X009790Y007235D01*
X009994Y007235D01*
X010139Y007071D01*
X010139Y006786D01*
X010590Y006335D01*
X011228Y006335D01*
X011550Y006657D01*
X011673Y006535D01*
X011909Y006535D01*
X012145Y006535D01*
X012479Y006869D01*
X012479Y007104D01*
X011909Y007104D01*
X011909Y006535D01*
X011909Y007104D01*
X011909Y007104D01*
X011909Y007105D01*
X011909Y007105D01*
X011909Y007675D01*
X012033Y007675D01*
X010586Y009121D01*
X010426Y009282D01*
X010339Y009491D01*
X010339Y010575D01*
X009786Y010575D01*
X009641Y010720D01*
X009635Y010713D01*
X009749Y010599D01*
X009749Y010355D01*
X009159Y010355D01*
X009159Y010354D01*
X009749Y010354D01*
X009749Y010110D01*
X009635Y009996D01*
X009949Y009682D01*
X009949Y009027D01*
X009486Y008565D01*
X008832Y008565D01*
X008703Y008693D01*
X008395Y008385D01*
X008159Y008385D01*
X008159Y008954D01*
X008159Y008954D01*
X008159Y008385D01*
X007923Y008385D01*
X007589Y008719D01*
X007589Y008954D01*
X008159Y008954D01*
X008159Y008955D01*
X008159Y009525D01*
X007923Y009525D01*
X007589Y009191D01*
X007589Y008955D01*
X008159Y008955D01*
X008159Y008955D01*
X008159Y009525D01*
X008369Y009525D01*
X008369Y009682D01*
X008683Y009996D01*
X008569Y010110D01*
X008569Y010209D01*
X008395Y010035D01*
X008159Y010035D01*
X008159Y010604D01*
X008159Y010604D01*
X008159Y010035D01*
X007923Y010035D01*
X007800Y010157D01*
X007478Y009835D01*
X006840Y009835D01*
X006769Y009906D01*
X006769Y009434D01*
X006929Y009274D01*
X006929Y008636D01*
X006908Y008615D01*
X007051Y008615D01*
X007060Y008616D01*
X007069Y008615D01*
X007180Y008615D01*
X007285Y008571D01*
X007294Y008570D01*
X007301Y008565D01*
X007405Y008522D01*
X007484Y008442D01*
X007492Y008437D01*
X007497Y008429D01*
X007576Y008350D01*
X007619Y008246D01*
X007625Y008237D01*
X007668Y008195D01*
X007691Y008139D01*
X007724Y008088D01*
X007736Y008029D01*
X007759Y007974D01*
X007759Y007914D01*
X007771Y007854D01*
X007759Y007795D01*
X007759Y006353D01*
X007908Y006205D01*
X009778Y006205D01*
X009999Y006113D01*
X010168Y005945D01*
X011418Y004695D01*
X011509Y004474D01*
X011509Y004235D01*
X011509Y002205D01*
X014614Y002205D01*
X014824Y002415D01*
X015495Y002415D01*
X015549Y002360D01*
X015549Y005226D01*
X015642Y005450D01*
X015814Y005622D01*
X016064Y005872D01*
X016288Y005965D01*
X016530Y005965D01*
X017930Y005965D01*
X018090Y006125D01*
X018728Y006125D01*
X019179Y005674D01*
X019179Y005036D01*
X018728Y004585D01*
X018090Y004585D01*
X017930Y004745D01*
X016769Y004745D01*
X016769Y002140D01*
X016800Y002109D01*
X016906Y002215D01*
X017159Y002215D01*
X017159Y001605D01*
X017159Y001605D01*
X017159Y002215D01*
X017412Y002215D01*
X017659Y001967D01*
X017906Y002215D01*
X018159Y002215D01*
X018159Y001605D01*
X018159Y001605D01*
X018159Y002215D01*
X018412Y002215D01*
X018518Y002109D01*
X018824Y002415D01*
X019495Y002415D01*
X019969Y001940D01*
X019969Y001269D01*
X019729Y001029D01*
X019729Y000741D01*
X019642Y000532D01*
X019482Y000371D01*
X019465Y000355D01*
X027996Y000355D01*
X027939Y000453D01*
X027869Y000718D01*
X027869Y000992D01*
X027939Y001256D01*
X028076Y001494D01*
X028270Y001687D01*
X028507Y001824D01*
X028772Y001895D01*
X029046Y001895D01*
X029311Y001824D01*
X029409Y001768D01*
X029409Y016722D01*
X029152Y016465D01*
X028899Y016465D01*
X028899Y017074D01*
X028899Y017074D01*
X028899Y016465D01*
X028646Y016465D01*
X028289Y016822D01*
X028289Y017074D01*
X028899Y017074D01*
X028899Y017075D01*
X028899Y017685D01*
X028646Y017685D01*
X028289Y017327D01*
X028289Y017075D01*
X028899Y017075D01*
X028899Y017075D01*
X028899Y017685D01*
X029152Y017685D01*
X029409Y017427D01*
X029409Y019282D01*
X029152Y019025D01*
X028899Y019025D01*
X028899Y019634D01*
X028899Y019634D01*
X028899Y019025D01*
X028646Y019025D01*
X028289Y019382D01*
X028289Y019634D01*
X028899Y019634D01*
X028899Y019635D01*
X028899Y020245D01*
X028646Y020245D01*
X028289Y019887D01*
X028289Y019635D01*
X028899Y019635D01*
X028899Y019635D01*
X028899Y020245D01*
X029152Y020245D01*
X029409Y019987D01*
X029409Y020442D01*
X029311Y020385D01*
X029046Y020314D01*
X028772Y020314D01*
X028507Y020385D01*
X028270Y020522D01*
X028076Y020716D01*
X027939Y020953D01*
X027869Y021218D01*
X027869Y021492D01*
X027939Y021756D01*
X027996Y021855D01*
X002322Y021855D01*
X002379Y021756D01*
X002450Y021492D01*
X002450Y021218D01*
X002379Y020953D01*
X002242Y020716D01*
X002048Y020522D01*
X001811Y020385D01*
X001546Y020314D01*
X001272Y020314D01*
X001007Y020385D01*
X000909Y020442D01*
X000909Y020309D02*
X003320Y020309D01*
X003256Y020154D02*
X003256Y019795D01*
X003394Y019463D01*
X003648Y019209D01*
X003979Y019072D01*
X004339Y019072D01*
X004670Y019209D01*
X004924Y019463D01*
X005062Y019795D01*
X005062Y020154D01*
X004924Y020486D01*
X004670Y020740D01*
X004339Y020878D01*
X003979Y020878D01*
X003648Y020740D01*
X003394Y020486D01*
X003256Y020154D01*
X003256Y020010D02*
X000909Y020010D01*
X000909Y019711D02*
X003291Y019711D01*
X003444Y019413D02*
X000909Y019413D01*
X000909Y019114D02*
X003877Y019114D01*
X004441Y019114D02*
X004863Y019114D01*
X004874Y019413D02*
X005267Y019413D01*
X005027Y019711D02*
X006639Y019711D01*
X006776Y020010D02*
X005062Y020010D01*
X004998Y020309D02*
X006816Y020309D01*
X006639Y020607D02*
X004803Y020607D01*
X003515Y020607D02*
X002133Y020607D01*
X002351Y020906D02*
X006639Y020906D01*
X006720Y021204D02*
X002446Y021204D01*
X002447Y021503D02*
X007018Y021503D01*
X007800Y021503D02*
X027871Y021503D01*
X027872Y021204D02*
X026705Y021204D01*
X026969Y020906D02*
X027967Y020906D01*
X028185Y020607D02*
X026969Y020607D01*
X027591Y020309D02*
X029409Y020309D01*
X029386Y020010D02*
X029409Y020010D01*
X028899Y020010D02*
X028899Y020010D01*
X028899Y019711D02*
X028899Y019711D01*
X028899Y019413D02*
X028899Y019413D01*
X028899Y019114D02*
X028899Y019114D01*
X028557Y019114D02*
X027744Y019114D01*
X027929Y019413D02*
X028289Y019413D01*
X028289Y019711D02*
X027929Y019711D01*
X027889Y020010D02*
X028412Y020010D01*
X029241Y019114D02*
X029409Y019114D01*
X029409Y018816D02*
X027689Y018816D01*
X027689Y018517D02*
X029409Y018517D01*
X029409Y018219D02*
X027689Y018219D01*
X027689Y017920D02*
X029409Y017920D01*
X029409Y017622D02*
X029215Y017622D01*
X028899Y017622D02*
X028899Y017622D01*
X028583Y017622D02*
X027718Y017622D01*
X027929Y017323D02*
X028289Y017323D01*
X028289Y017025D02*
X027929Y017025D01*
X027916Y016726D02*
X028385Y016726D01*
X028899Y016726D02*
X028899Y016726D01*
X028899Y017025D02*
X028899Y017025D01*
X028899Y017323D02*
X028899Y017323D01*
X029409Y016428D02*
X027699Y016428D01*
X027704Y016129D02*
X029409Y016129D01*
X029409Y015830D02*
X027709Y015830D01*
X027713Y015532D02*
X029409Y015532D01*
X029409Y015233D02*
X027718Y015233D01*
X027723Y014935D02*
X029409Y014935D01*
X029409Y014636D02*
X027729Y014636D01*
X027729Y014338D02*
X029409Y014338D01*
X029409Y014039D02*
X027729Y014039D01*
X027912Y013741D02*
X029409Y013741D01*
X029409Y013442D02*
X027929Y013442D01*
X027929Y013144D02*
X029409Y013144D01*
X029409Y012845D02*
X027688Y012845D01*
X029409Y012546D02*
X024939Y012546D01*
X024939Y012248D02*
X029409Y012248D01*
X029409Y011949D02*
X024857Y011949D01*
X024558Y011651D02*
X029409Y011651D01*
X029409Y011352D02*
X021538Y011352D01*
X021836Y011651D02*
X023760Y011651D01*
X023461Y011949D02*
X022607Y011949D01*
X022905Y012248D02*
X023379Y012248D01*
X023379Y012546D02*
X022939Y012546D01*
X022159Y013405D02*
X022159Y013605D01*
X021589Y014064D02*
X021589Y019729D01*
X021482Y019621D01*
X019819Y017958D01*
X019915Y017861D01*
X019513Y017459D01*
X019513Y017458D01*
X019916Y017861D01*
X020083Y017694D01*
X020083Y017471D01*
X020193Y017471D01*
X020193Y017644D01*
X020359Y017811D01*
X020762Y017408D01*
X020762Y017409D01*
X020360Y017811D01*
X020526Y017978D01*
X020999Y017978D01*
X021165Y017811D01*
X020763Y017409D01*
X020763Y017408D01*
X021166Y017005D01*
X021333Y017172D01*
X021333Y017644D01*
X021166Y017811D01*
X020763Y017408D01*
X020763Y017408D01*
X021165Y017005D01*
X020999Y016838D01*
X020825Y016838D01*
X020825Y016382D01*
X020625Y016182D01*
X020625Y015427D01*
X020629Y015424D01*
X020629Y015222D01*
X020635Y015199D01*
X020629Y015150D01*
X020629Y014786D01*
X020178Y014335D01*
X019729Y014335D01*
X019729Y013924D01*
X019800Y013852D01*
X019923Y013975D01*
X020159Y013975D01*
X020159Y013405D01*
X020159Y013405D01*
X020159Y013975D01*
X020395Y013975D01*
X020518Y013852D01*
X020840Y014175D01*
X021478Y014175D01*
X021589Y014064D01*
X021589Y014338D02*
X020181Y014338D01*
X020159Y014105D02*
X021659Y015605D01*
X021659Y017312D01*
X021589Y017323D02*
X021333Y017323D01*
X021185Y017025D02*
X021589Y017025D01*
X021589Y016726D02*
X020825Y016726D01*
X021146Y017025D02*
X021146Y017025D01*
X020848Y017323D02*
X020847Y017323D01*
X020976Y017622D02*
X020976Y017622D01*
X021057Y017920D02*
X021589Y017920D01*
X021589Y017622D02*
X021333Y017622D01*
X021589Y018219D02*
X020079Y018219D01*
X020378Y018517D02*
X021589Y018517D01*
X021589Y018816D02*
X020676Y018816D01*
X020975Y019114D02*
X021589Y019114D01*
X021589Y019413D02*
X021273Y019413D01*
X021572Y019711D02*
X021589Y019711D01*
X020469Y017920D02*
X019857Y017920D01*
X019676Y017622D02*
X019676Y017622D01*
X020083Y017622D02*
X020193Y017622D01*
X020549Y017622D02*
X020549Y017622D01*
X020825Y016428D02*
X021589Y016428D01*
X021589Y016129D02*
X020625Y016129D01*
X020625Y015830D02*
X021589Y015830D01*
X021589Y015532D02*
X020625Y015532D01*
X020629Y015233D02*
X021589Y015233D01*
X021589Y014935D02*
X020629Y014935D01*
X020479Y014636D02*
X021589Y014636D01*
X020705Y014039D02*
X019729Y014039D01*
X020159Y014105D02*
X020159Y013405D01*
X020159Y013442D02*
X020159Y013442D01*
X020159Y013144D02*
X020159Y013144D01*
X020159Y012845D02*
X020159Y012845D01*
X019913Y012845D02*
X019688Y012845D01*
X020405Y012845D02*
X020559Y012845D01*
X020469Y012546D02*
X015769Y012546D01*
X015769Y012248D02*
X020359Y012248D01*
X020359Y011949D02*
X015769Y011949D01*
X015939Y011651D02*
X020482Y011651D01*
X020780Y011352D02*
X015939Y011352D01*
X016599Y011054D02*
X016719Y011054D01*
X017599Y011054D02*
X017719Y011054D01*
X018599Y011054D02*
X018719Y011054D01*
X019599Y011054D02*
X019719Y011054D01*
X020599Y011054D02*
X021719Y011054D01*
X021159Y010755D02*
X021159Y010755D01*
X021159Y010457D02*
X021159Y010457D01*
X021159Y010404D02*
X021159Y009835D01*
X021159Y009355D01*
X021159Y009355D01*
X021159Y009835D01*
X021159Y010404D01*
X021159Y010404D01*
X021159Y010158D02*
X021159Y010158D01*
X021159Y009860D02*
X021159Y009860D01*
X021159Y009561D02*
X021159Y009561D01*
X021159Y009262D02*
X021159Y009262D01*
X021159Y008964D02*
X021159Y008964D01*
X020744Y008964D02*
X020718Y008964D01*
X020526Y008665D02*
X021589Y008665D01*
X021574Y008964D02*
X021589Y008964D01*
X021589Y008367D02*
X020227Y008367D01*
X019929Y008068D02*
X021589Y008068D01*
X021589Y007770D02*
X019630Y007770D01*
X019332Y007471D02*
X021589Y007471D01*
X021589Y007173D02*
X019033Y007173D01*
X018874Y005979D02*
X021589Y005979D01*
X021589Y005680D02*
X019173Y005680D01*
X019179Y005381D02*
X021589Y005381D01*
X021589Y005083D02*
X019179Y005083D01*
X018928Y004784D02*
X021589Y004784D01*
X021589Y004486D02*
X016769Y004486D01*
X016769Y004187D02*
X021589Y004187D01*
X021589Y003889D02*
X016769Y003889D01*
X016769Y003590D02*
X021338Y003590D01*
X021040Y003292D02*
X016769Y003292D01*
X016769Y002993D02*
X020741Y002993D01*
X020589Y002695D02*
X016769Y002695D01*
X016769Y002396D02*
X018805Y002396D01*
X019513Y002396D02*
X020589Y002396D01*
X020506Y002097D02*
X019812Y002097D01*
X019969Y001799D02*
X020349Y001799D01*
X020349Y001500D02*
X019969Y001500D01*
X019902Y001202D02*
X020416Y001202D01*
X020715Y000903D02*
X019729Y000903D01*
X019672Y000605D02*
X027899Y000605D01*
X027869Y000903D02*
X026603Y000903D01*
X026902Y001202D02*
X027925Y001202D01*
X028083Y001500D02*
X026969Y001500D01*
X026969Y001799D02*
X028463Y001799D01*
X029355Y001799D02*
X029409Y001799D01*
X029409Y002097D02*
X026812Y002097D01*
X026756Y002396D02*
X029409Y002396D01*
X029409Y002695D02*
X027055Y002695D01*
X027354Y002993D02*
X029409Y002993D01*
X029409Y003292D02*
X027646Y003292D01*
X027729Y003590D02*
X029409Y003590D01*
X029409Y003889D02*
X027729Y003889D01*
X027729Y004187D02*
X029409Y004187D01*
X029409Y004486D02*
X027729Y004486D01*
X027729Y004784D02*
X029409Y004784D01*
X029409Y005083D02*
X027729Y005083D01*
X027729Y005381D02*
X029409Y005381D01*
X029409Y005680D02*
X027729Y005680D01*
X027729Y005979D02*
X029409Y005979D01*
X029409Y006277D02*
X027729Y006277D01*
X027729Y006576D02*
X029409Y006576D01*
X029409Y006874D02*
X027729Y006874D01*
X027729Y007173D02*
X029409Y007173D01*
X029409Y007471D02*
X027729Y007471D01*
X027729Y007770D02*
X029409Y007770D01*
X029409Y008068D02*
X027729Y008068D01*
X027729Y008367D02*
X029409Y008367D01*
X029409Y008665D02*
X027729Y008665D01*
X027729Y008964D02*
X029409Y008964D01*
X029409Y009262D02*
X027729Y009262D01*
X027729Y009561D02*
X029409Y009561D01*
X029409Y009860D02*
X027729Y009860D01*
X027929Y010158D02*
X029409Y010158D01*
X029409Y010457D02*
X027929Y010457D01*
X027897Y010755D02*
X029409Y010755D01*
X029409Y011054D02*
X027599Y011054D01*
X026719Y011054D02*
X026599Y011054D01*
X025719Y011054D02*
X025599Y011054D01*
X024719Y011054D02*
X024599Y011054D01*
X023719Y011054D02*
X023599Y011054D01*
X022719Y011054D02*
X022599Y011054D01*
X021159Y012105D02*
X021159Y013405D01*
X020159Y013741D02*
X020159Y013741D01*
X024159Y013605D02*
X024159Y013405D01*
X017988Y019711D02*
X017729Y019711D01*
X017729Y020010D02*
X018287Y020010D01*
X018349Y020309D02*
X017969Y020309D01*
X017969Y020607D02*
X018349Y020607D01*
X018349Y020906D02*
X017969Y020906D01*
X017705Y021204D02*
X018613Y021204D01*
X011613Y021204D02*
X011422Y021204D01*
X011159Y021204D02*
X011159Y021204D01*
X010896Y021204D02*
X010705Y021204D01*
X011159Y020906D02*
X011159Y020906D01*
X011159Y020607D02*
X011159Y020607D01*
X009613Y021204D02*
X008816Y021204D01*
X008979Y020906D02*
X009349Y020906D01*
X009349Y020607D02*
X008979Y020607D01*
X008719Y020309D02*
X009349Y020309D01*
X009608Y020010D02*
X008043Y020010D01*
X008002Y020309D02*
X008099Y020309D01*
X008409Y020309D02*
X008409Y020309D01*
X008409Y020607D02*
X008409Y020607D01*
X008409Y020906D02*
X008409Y020906D01*
X008409Y021204D02*
X008409Y021204D01*
X008179Y019711D02*
X009623Y019711D01*
X009823Y019413D02*
X008179Y019413D01*
X008058Y019114D02*
X009863Y019114D01*
X009589Y018816D02*
X008254Y018816D01*
X008553Y018517D02*
X009589Y018517D01*
X009717Y018219D02*
X008729Y018219D01*
X008729Y017920D02*
X009589Y017920D01*
X010159Y017920D02*
X010159Y017920D01*
X010159Y017875D02*
X010159Y018425D01*
X010159Y017875D01*
X010159Y017875D01*
X010159Y018219D02*
X010159Y018219D01*
X010159Y018517D02*
X010159Y018517D01*
X007176Y015782D02*
X006836Y016121D01*
X006836Y016121D01*
X006759Y016199D01*
X006759Y014622D01*
X006949Y014432D01*
X006949Y013875D01*
X007478Y013875D01*
X007800Y013552D01*
X007923Y013675D01*
X008159Y013675D01*
X008159Y013105D01*
X008159Y013105D01*
X008159Y013675D01*
X008395Y013675D01*
X008518Y013552D01*
X008840Y013875D01*
X009478Y013875D01*
X009659Y013694D01*
X009840Y013875D01*
X010339Y013875D01*
X010339Y015979D01*
X009982Y015621D01*
X009772Y015535D01*
X009546Y015535D01*
X007546Y015535D01*
X007336Y015621D01*
X007176Y015782D01*
X007176Y015782D01*
X007127Y015830D02*
X006759Y015830D01*
X006759Y016129D02*
X006829Y016129D01*
X006759Y015532D02*
X010339Y015532D01*
X010339Y015233D02*
X006759Y015233D01*
X006759Y014935D02*
X010339Y014935D01*
X010339Y014636D02*
X006759Y014636D01*
X006949Y014338D02*
X010339Y014338D01*
X010339Y014039D02*
X006949Y014039D01*
X006159Y014105D02*
X006159Y016967D01*
X006013Y017113D01*
X005226Y016726D02*
X005226Y016726D01*
X005559Y016428D02*
X000909Y016428D01*
X000909Y016129D02*
X003959Y016129D01*
X003979Y016137D02*
X003648Y016000D01*
X003394Y015746D01*
X003256Y015414D01*
X003256Y015055D01*
X003394Y014723D01*
X003648Y014469D01*
X003979Y014332D01*
X004339Y014332D01*
X004670Y014469D01*
X004924Y014723D01*
X005062Y015055D01*
X005062Y015414D01*
X004924Y015746D01*
X004670Y016000D01*
X004339Y016137D01*
X003979Y016137D01*
X004359Y016129D02*
X005559Y016129D01*
X005559Y015830D02*
X004840Y015830D01*
X005013Y015532D02*
X005559Y015532D01*
X005559Y015233D02*
X005062Y015233D01*
X005012Y014935D02*
X005559Y014935D01*
X005559Y014636D02*
X004837Y014636D01*
X004353Y014338D02*
X005369Y014338D01*
X005369Y014039D02*
X000909Y014039D01*
X000909Y014338D02*
X003965Y014338D01*
X003481Y014636D02*
X000909Y014636D01*
X000909Y014935D02*
X003306Y014935D01*
X003256Y015233D02*
X000909Y015233D01*
X000909Y015532D02*
X003305Y015532D01*
X003478Y015830D02*
X000909Y015830D01*
X000909Y016726D02*
X004768Y016726D01*
X004629Y017025D02*
X000909Y017025D01*
X000909Y017323D02*
X004629Y017323D01*
X004574Y017622D02*
X000909Y017622D01*
X000909Y017920D02*
X004429Y017920D01*
X004429Y018219D02*
X000909Y018219D01*
X000909Y018517D02*
X004519Y018517D01*
X004669Y018816D02*
X000909Y018816D01*
X002353Y021801D02*
X027965Y021801D01*
X015159Y013605D02*
X015159Y013405D01*
X010339Y015830D02*
X010191Y015830D01*
X009706Y013741D02*
X009612Y013741D01*
X008706Y013741D02*
X007612Y013741D01*
X008159Y013442D02*
X008159Y013442D01*
X008159Y013144D02*
X008159Y013144D01*
X008159Y013104D02*
X008159Y012535D01*
X008379Y012535D01*
X008379Y012032D01*
X008549Y011862D01*
X008369Y011682D01*
X008369Y011175D01*
X008159Y011175D01*
X007923Y011175D01*
X007800Y011052D01*
X007729Y011124D01*
X007729Y011493D01*
X007959Y011723D01*
X007959Y012386D01*
X007744Y012601D01*
X007800Y012657D01*
X007923Y012535D01*
X008159Y012535D01*
X008159Y013104D01*
X008159Y013104D01*
X008159Y012845D02*
X008159Y012845D01*
X008159Y012546D02*
X008159Y012546D01*
X007911Y012546D02*
X007799Y012546D01*
X007959Y012248D02*
X008379Y012248D01*
X008461Y011949D02*
X007959Y011949D01*
X007886Y011651D02*
X008369Y011651D01*
X008369Y011352D02*
X007729Y011352D01*
X008159Y011175D02*
X008159Y010605D01*
X008159Y010605D01*
X008159Y011175D01*
X008159Y011054D02*
X008159Y011054D01*
X008159Y010755D02*
X008159Y010755D01*
X008159Y010457D02*
X008159Y010457D01*
X008159Y010158D02*
X008159Y010158D01*
X008518Y010158D02*
X008569Y010158D01*
X008547Y009860D02*
X007503Y009860D01*
X006815Y009860D02*
X006769Y009860D01*
X006769Y009561D02*
X008369Y009561D01*
X008159Y009262D02*
X008159Y009262D01*
X008159Y008964D02*
X008159Y008964D01*
X008159Y008665D02*
X008159Y008665D01*
X007642Y008665D02*
X006929Y008665D01*
X006929Y008964D02*
X007589Y008964D01*
X007661Y009262D02*
X006929Y009262D01*
X007560Y008367D02*
X009382Y008367D01*
X009339Y008068D02*
X007728Y008068D01*
X007759Y007770D02*
X009339Y007770D01*
X009554Y007471D02*
X007759Y007471D01*
X007759Y007173D02*
X010049Y007173D01*
X010139Y006874D02*
X007759Y006874D01*
X007759Y006576D02*
X010349Y006576D01*
X010909Y007105D02*
X010159Y007955D01*
X010879Y008068D02*
X011639Y008068D01*
X011341Y008367D02*
X010836Y008367D01*
X011042Y008665D02*
X010537Y008665D01*
X010744Y008964D02*
X009885Y008964D01*
X009949Y009262D02*
X010445Y009262D01*
X010339Y009561D02*
X009949Y009561D01*
X009771Y009860D02*
X010339Y009860D01*
X010339Y010158D02*
X009749Y010158D01*
X009749Y010457D02*
X010339Y010457D01*
X009681Y008665D02*
X009587Y008665D01*
X008731Y008665D02*
X008676Y008665D01*
X007159Y007855D02*
X007159Y006105D01*
X007659Y005605D01*
X009659Y005605D01*
X010909Y004355D01*
X010909Y001855D01*
X011159Y001605D01*
X015159Y001605D01*
X014805Y002396D02*
X011509Y002396D01*
X011509Y002695D02*
X015549Y002695D01*
X015549Y002993D02*
X011509Y002993D01*
X011509Y003292D02*
X015549Y003292D01*
X015549Y003590D02*
X011509Y003590D01*
X011509Y003889D02*
X015549Y003889D01*
X015549Y004187D02*
X011509Y004187D01*
X011504Y004486D02*
X015549Y004486D01*
X015549Y004784D02*
X011328Y004784D01*
X011029Y005083D02*
X015549Y005083D01*
X015613Y005381D02*
X010731Y005381D01*
X010432Y005680D02*
X015872Y005680D01*
X017944Y005979D02*
X010134Y005979D01*
X011469Y006576D02*
X011632Y006576D01*
X011909Y006576D02*
X011909Y006576D01*
X012186Y006576D02*
X021589Y006576D01*
X021589Y006874D02*
X012479Y006874D01*
X012479Y007173D02*
X012535Y007173D01*
X011909Y007173D02*
X011909Y007173D01*
X011909Y007471D02*
X011909Y007471D01*
X011938Y007770D02*
X011333Y007770D01*
X011909Y006874D02*
X011909Y006874D01*
X009409Y003889D02*
X007681Y003889D01*
X007729Y003590D02*
X009409Y003590D01*
X009409Y003292D02*
X007652Y003292D01*
X007159Y003292D02*
X007159Y003292D01*
X006709Y002993D02*
X009409Y002993D01*
X009229Y002695D02*
X006889Y002695D01*
X006889Y002396D02*
X009229Y002396D01*
X009243Y002097D02*
X006876Y002097D01*
X006577Y001799D02*
X009489Y001799D01*
X009489Y001500D02*
X005094Y001500D01*
X005094Y001636D02*
X005094Y001329D01*
X004659Y000894D01*
X004352Y000894D01*
X004352Y001636D01*
X004352Y001636D01*
X004352Y000894D01*
X004045Y000894D01*
X003610Y001329D01*
X003610Y001636D01*
X004352Y001636D01*
X004352Y001636D01*
X005094Y001636D01*
X005094Y001944D01*
X004659Y002378D01*
X004352Y002378D01*
X004352Y001637D01*
X004352Y001637D01*
X004352Y002378D01*
X004045Y002378D01*
X003610Y001944D01*
X003610Y001636D01*
X004352Y001636D01*
X004352Y001636D01*
X005094Y001636D01*
X005094Y001799D02*
X005541Y001799D01*
X005243Y002097D02*
X004940Y002097D01*
X005229Y002396D02*
X000909Y002396D01*
X000909Y002097D02*
X003764Y002097D01*
X003610Y001799D02*
X001855Y001799D01*
X002235Y001500D02*
X003610Y001500D01*
X003737Y001202D02*
X002393Y001202D01*
X002450Y000903D02*
X004035Y000903D01*
X004352Y000903D02*
X004352Y000903D01*
X004352Y001202D02*
X004352Y001202D01*
X004352Y001500D02*
X004352Y001500D01*
X004352Y001799D02*
X004352Y001799D01*
X004352Y002097D02*
X004352Y002097D01*
X005111Y002695D02*
X000909Y002695D01*
X000909Y002993D02*
X002674Y002993D01*
X002804Y002863D02*
X002370Y003297D01*
X002370Y003604D01*
X003111Y003604D01*
X003111Y003605D01*
X002370Y003605D01*
X002370Y003912D01*
X002804Y004347D01*
X003112Y004347D01*
X003112Y003605D01*
X003112Y003605D01*
X003854Y003605D01*
X003854Y003912D01*
X003419Y004347D01*
X003112Y004347D01*
X003112Y003605D01*
X003112Y003604D01*
X003112Y002863D01*
X003419Y002863D01*
X003854Y003297D01*
X003854Y003604D01*
X003112Y003604D01*
X003112Y003604D01*
X003112Y002863D01*
X002804Y002863D01*
X003112Y002993D02*
X003112Y002993D01*
X003112Y003292D02*
X003112Y003292D01*
X003550Y002993D02*
X004812Y002993D01*
X004591Y003292D02*
X003848Y003292D01*
X003854Y003590D02*
X004591Y003590D01*
X004591Y003889D02*
X003854Y003889D01*
X003579Y004187D02*
X004783Y004187D01*
X003112Y004187D02*
X003112Y004187D01*
X003112Y003889D02*
X003112Y003889D01*
X003112Y003590D02*
X003112Y003590D01*
X002645Y004187D02*
X000909Y004187D01*
X000909Y003889D02*
X002370Y003889D01*
X002370Y003590D02*
X000909Y003590D01*
X000909Y003292D02*
X002375Y003292D01*
X002705Y004486D02*
X000909Y004486D01*
X000909Y004784D02*
X002310Y004784D01*
X002068Y005083D02*
X000909Y005083D01*
X000909Y005381D02*
X002009Y005381D01*
X001938Y005680D02*
X000909Y005680D01*
X000909Y005979D02*
X001849Y005979D01*
X001849Y006277D02*
X000909Y006277D01*
X000909Y006576D02*
X001984Y006576D01*
X002283Y006874D02*
X000909Y006874D01*
X000909Y007173D02*
X004509Y007173D01*
X004509Y007471D02*
X000909Y007471D01*
X000909Y007770D02*
X004509Y007770D01*
X004509Y008068D02*
X000909Y008068D01*
X000909Y008367D02*
X004509Y008367D01*
X004509Y008665D02*
X000909Y008665D01*
X000909Y008964D02*
X004509Y008964D01*
X004509Y009262D02*
X000909Y009262D01*
X000909Y009561D02*
X004509Y009561D01*
X004509Y009860D02*
X000909Y009860D01*
X000909Y010158D02*
X004509Y010158D01*
X004509Y010457D02*
X000909Y010457D01*
X000909Y010755D02*
X004640Y010755D01*
X004939Y011054D02*
X004212Y011054D01*
X004334Y011124D02*
X004084Y010980D01*
X003804Y010905D01*
X003514Y010905D01*
X003234Y010980D01*
X002984Y011124D01*
X002779Y011329D01*
X002634Y011580D01*
X002559Y011860D01*
X002559Y012150D01*
X002634Y012429D01*
X002779Y012680D01*
X002984Y012885D01*
X003234Y013030D01*
X003514Y013105D01*
X003804Y013105D01*
X004084Y013030D01*
X004334Y012885D01*
X004539Y012680D01*
X004684Y012429D01*
X004759Y012150D01*
X004759Y011860D01*
X004684Y011580D01*
X004539Y011329D01*
X004334Y011124D01*
X004553Y011352D02*
X005237Y011352D01*
X005496Y011651D02*
X004703Y011651D01*
X004759Y011949D02*
X005369Y011949D01*
X005369Y012248D02*
X004733Y012248D01*
X004616Y012546D02*
X005484Y012546D01*
X005369Y012845D02*
X004374Y012845D01*
X005369Y013144D02*
X000909Y013144D01*
X000909Y013442D02*
X005379Y013442D01*
X005406Y013741D02*
X000909Y013741D01*
X000909Y012845D02*
X002944Y012845D01*
X002702Y012546D02*
X000909Y012546D01*
X000909Y012248D02*
X002585Y012248D01*
X002559Y011949D02*
X000909Y011949D01*
X000909Y011651D02*
X002615Y011651D01*
X002766Y011352D02*
X000909Y011352D01*
X000909Y011054D02*
X003106Y011054D01*
X007059Y008005D02*
X007159Y007855D01*
X007835Y006277D02*
X021589Y006277D01*
X018159Y002097D02*
X018159Y002097D01*
X018159Y001799D02*
X018159Y001799D01*
X018159Y001605D02*
X018159Y001604D01*
X017549Y001604D01*
X017159Y001604D01*
X017159Y001605D01*
X017549Y001605D01*
X018159Y001605D01*
X017789Y002097D02*
X017529Y002097D01*
X017159Y002097D02*
X017159Y002097D01*
X017159Y001799D02*
X017159Y001799D01*
X015549Y002396D02*
X015513Y002396D01*
X009489Y001202D02*
X004967Y001202D01*
X004669Y000903D02*
X009489Y000903D01*
X009603Y000605D02*
X002419Y000605D01*
X000963Y001799D02*
X000909Y001799D01*
X003659Y006277D02*
X003659Y006277D01*
X003659Y006576D02*
X003659Y006576D01*
X003035Y006874D02*
X004283Y006874D01*
X007159Y003590D02*
X007159Y003590D01*
X007799Y011054D02*
X007802Y011054D01*
X021603Y000903D02*
X021715Y000903D01*
X022603Y000903D02*
X022715Y000903D01*
X023603Y000903D02*
X023715Y000903D01*
X024603Y000903D02*
X024715Y000903D01*
X025603Y000903D02*
X025715Y000903D01*
D18*
X026159Y001605D02*
X026159Y002605D01*
X027159Y003605D01*
X027159Y010405D01*
X026159Y010405D02*
X026159Y003605D01*
X025159Y002605D01*
X025159Y001605D01*
X024159Y001605D02*
X024159Y002605D01*
X025159Y003605D01*
X025159Y010405D01*
X024159Y010405D02*
X024159Y003605D01*
X023159Y002605D01*
X023159Y001605D01*
X022159Y001605D02*
X022159Y002605D01*
X023159Y003605D01*
X023159Y010405D01*
X022159Y010405D02*
X022159Y003605D01*
X021159Y002605D01*
X021159Y001605D01*
X019159Y001605D02*
X019159Y000855D01*
X018909Y000605D01*
X010409Y000605D01*
X010059Y000955D01*
X010059Y002455D01*
X012909Y007605D02*
X010909Y009605D01*
X010909Y019105D01*
X011409Y019555D02*
X012109Y019555D01*
X012159Y019605D01*
X012159Y020605D01*
X013159Y020605D02*
X013159Y018105D01*
X011909Y016855D01*
X011909Y010105D01*
X013409Y008605D01*
X015659Y008605D01*
X017159Y010105D01*
X017159Y010405D01*
X016159Y010405D02*
X016159Y010105D01*
X015159Y009105D01*
X013659Y009105D01*
X012409Y010355D01*
X012409Y016605D01*
X014159Y018355D01*
X014159Y020605D01*
X015159Y020605D02*
X015159Y018605D01*
X012909Y016355D01*
X012909Y010605D01*
X013909Y009605D01*
X014659Y009605D01*
X015159Y010105D01*
X015159Y010405D01*
X014159Y010405D02*
X013859Y010405D01*
X013409Y010855D01*
X013409Y016105D01*
X016159Y018855D01*
X016159Y020605D01*
X017159Y020605D02*
X017159Y019105D01*
X014159Y016105D01*
X014159Y013405D01*
X016159Y013405D02*
X016159Y016105D01*
X020159Y020105D01*
X020159Y020605D01*
X019159Y020605D02*
X019159Y020105D01*
X021159Y020105D02*
X021159Y020605D01*
X021159Y020105D02*
X017159Y016105D01*
X017159Y013405D01*
X018159Y013405D02*
X018159Y014855D01*
X017959Y015105D01*
X017959Y015905D01*
X018805Y016751D01*
X020055Y016701D02*
X020055Y015158D01*
X019859Y015105D01*
X019409Y015105D01*
X019159Y014855D01*
X019159Y013405D01*
X022159Y013605D02*
X022159Y020605D01*
X023159Y020605D02*
X023159Y013405D01*
X024159Y013605D02*
X024159Y020605D01*
X025159Y020605D02*
X025159Y013405D01*
X026159Y013405D02*
X026159Y020605D01*
X027119Y019635D02*
X027119Y017075D01*
X027159Y014535D01*
X027159Y013405D01*
X020159Y010405D02*
X020159Y009105D01*
X018659Y007605D01*
X012909Y007605D01*
X013159Y008105D02*
X011409Y009855D01*
X011409Y017105D01*
X012159Y017855D01*
X012159Y019605D01*
X010159Y017105D02*
X010159Y016605D01*
X009659Y016105D01*
X007659Y016105D01*
X007159Y016605D01*
X007159Y017105D01*
X007159Y017855D01*
X006256Y017855D01*
X006013Y018097D01*
X005226Y018097D02*
X005226Y018672D01*
X005409Y018855D01*
X006909Y018855D01*
X007159Y018605D01*
X007659Y018605D01*
X008159Y018105D01*
X008159Y017105D01*
X009159Y017105D01*
X007409Y019555D02*
X007409Y020805D01*
X007159Y013105D02*
X006159Y013105D01*
X007159Y013105D02*
X007159Y012055D01*
X007159Y010605D01*
X009159Y012355D02*
X009159Y013105D01*
X010159Y013105D02*
X010159Y012605D01*
X010159Y008005D02*
X010159Y007955D01*
X010159Y008005D02*
X010109Y008005D01*
X013159Y008105D02*
X015909Y008105D01*
X018159Y010355D01*
X018159Y010405D01*
D19*
X015159Y011355D03*
X010109Y011355D03*
X009159Y012355D03*
X010159Y012605D03*
X022159Y012605D03*
X024159Y012355D03*
D20*
X024159Y013605D01*
X022159Y013605D02*
X022159Y012605D01*
X019159Y010405D02*
X019159Y009355D01*
X018409Y009355D01*
X015159Y011355D02*
X015159Y013605D01*
X010109Y011355D02*
X009159Y011355D01*
X007159Y010605D02*
X006409Y010605D01*
X006159Y010355D01*
X006159Y008955D01*
X006109Y008905D01*
X006109Y008005D01*
X007059Y008005D01*
X015159Y001605D02*
X016159Y001605D01*
X016159Y005105D01*
X016409Y005355D01*
X018409Y005355D01*
D21*
X010059Y004205D02*
X010059Y002455D01*
X010059Y004205D02*
X009659Y004605D01*
X007159Y004605D01*
X006409Y004605D01*
X005909Y005105D01*
X002909Y005105D01*
X002659Y005355D01*
X002659Y006105D01*
X004659Y006105D02*
X004909Y006105D01*
X005159Y006355D01*
X005159Y010355D01*
X006159Y011355D01*
X006159Y012105D01*
X005533Y003605D02*
X006059Y003079D01*
X006059Y002455D01*
D22*
X015159Y013605D02*
X015159Y016105D01*
X019159Y020105D01*
X010909Y019105D02*
X010159Y019855D01*
X010159Y020605D01*
D23*
X007159Y012055D03*
X021159Y012105D03*
M02*
