G75*
G70*
%OFA0B0*%
%FSLAX24Y24*%
%IPPOS*%
%LPD*%
%AMOC8*
5,1,8,0,0,1.08239X$1,22.5*
%
%ADD10C,0.1261*%
%ADD11OC8,0.0720*%
%ADD12OC8,0.0774*%
%ADD13C,0.0986*%
%ADD14OC8,0.1064*%
%ADD15OC8,0.0800*%
%ADD16OC8,0.0760*%
%ADD17C,0.1380*%
%ADD18OC8,0.0840*%
%ADD19C,0.0144*%
%ADD20OC8,0.0740*%
%ADD21OC8,0.0780*%
D10*
X001409Y000855D03*
X028909Y000855D03*
X028909Y021355D03*
X001409Y021355D03*
D11*
X007159Y018605D03*
X007159Y017855D03*
X007159Y017105D03*
X008159Y017105D03*
X009159Y017105D03*
X010159Y017105D03*
X010159Y017855D03*
X010159Y018605D03*
X011409Y019555D03*
X008409Y020805D03*
X007409Y020805D03*
X007409Y019555D03*
X014159Y013405D03*
X015159Y013405D03*
X016159Y013405D03*
X017159Y013405D03*
X018159Y013405D03*
X019159Y013405D03*
X020159Y013405D03*
X021159Y013405D03*
X022159Y013405D03*
X023159Y013405D03*
X024159Y013405D03*
X025159Y013405D03*
X026159Y013405D03*
X027159Y013405D03*
X027159Y010405D03*
X026159Y010405D03*
X025159Y010405D03*
X024159Y010405D03*
X023159Y010405D03*
X022159Y010405D03*
X021159Y010405D03*
X020159Y010405D03*
X019159Y010405D03*
X018159Y010405D03*
X017159Y010405D03*
X016159Y010405D03*
X015159Y010405D03*
X014159Y010405D03*
X010109Y008005D03*
X010909Y007105D03*
X011909Y007105D03*
X008159Y008955D03*
X006159Y008955D03*
X006109Y008005D03*
X007159Y010605D03*
X008159Y010605D03*
X008159Y013105D03*
X007159Y013105D03*
X009159Y013105D03*
X010159Y013105D03*
X017959Y015105D03*
X019859Y015105D03*
X019159Y009355D03*
X018409Y009355D03*
X021159Y009355D03*
X018409Y005355D03*
X007159Y004605D03*
X007159Y003605D03*
D12*
X006013Y017113D03*
X005226Y017113D03*
X005226Y018097D03*
X006013Y018097D03*
D13*
X004159Y019975D03*
X004159Y015235D03*
D14*
X003112Y003605D03*
X005533Y003605D03*
X004352Y001636D03*
D15*
X004659Y006105D03*
X003659Y006105D03*
X002659Y006105D03*
X015159Y001605D03*
X016159Y001605D03*
X017159Y001605D03*
X018159Y001605D03*
X019159Y001605D03*
X021159Y001605D03*
X022159Y001605D03*
X023159Y001605D03*
X024159Y001605D03*
X025159Y001605D03*
X026159Y001605D03*
X027119Y017075D03*
X028899Y017075D03*
X028899Y019635D03*
X027119Y019635D03*
X026159Y020605D03*
X025159Y020605D03*
X024159Y020605D03*
X023159Y020605D03*
X022159Y020605D03*
X021159Y020605D03*
X020159Y020605D03*
X019159Y020605D03*
X017159Y020605D03*
X016159Y020605D03*
X015159Y020605D03*
X014159Y020605D03*
X013159Y020605D03*
X012159Y020605D03*
X011159Y020605D03*
X010159Y020605D03*
D16*
X006159Y014105D03*
X006159Y013105D03*
X006159Y012105D03*
X009159Y011355D03*
X009159Y010355D03*
X009159Y009355D03*
D17*
X003659Y012005D03*
D18*
X006059Y002455D03*
X010059Y002455D03*
D19*
X018590Y016704D02*
X018518Y016632D01*
X018518Y016870D01*
X018686Y017038D01*
X018924Y017038D01*
X019092Y016870D01*
X019092Y016632D01*
X018924Y016464D01*
X018686Y016464D01*
X018518Y016632D01*
X018626Y016677D01*
X018626Y016825D01*
X018731Y016930D01*
X018879Y016930D01*
X018984Y016825D01*
X018984Y016677D01*
X018879Y016572D01*
X018731Y016572D01*
X018626Y016677D01*
X018734Y016721D01*
X018734Y016781D01*
X018775Y016822D01*
X018835Y016822D01*
X018876Y016781D01*
X018876Y016721D01*
X018835Y016680D01*
X018775Y016680D01*
X018734Y016721D01*
X019298Y017411D02*
X019226Y017339D01*
X019226Y017577D01*
X019394Y017745D01*
X019632Y017745D01*
X019800Y017577D01*
X019800Y017339D01*
X019632Y017171D01*
X019394Y017171D01*
X019226Y017339D01*
X019334Y017384D01*
X019334Y017532D01*
X019439Y017637D01*
X019587Y017637D01*
X019692Y017532D01*
X019692Y017384D01*
X019587Y017279D01*
X019439Y017279D01*
X019334Y017384D01*
X019442Y017428D01*
X019442Y017488D01*
X019483Y017529D01*
X019543Y017529D01*
X019584Y017488D01*
X019584Y017428D01*
X019543Y017387D01*
X019483Y017387D01*
X019442Y017428D01*
X019840Y016654D02*
X019768Y016582D01*
X019768Y016820D01*
X019936Y016988D01*
X020174Y016988D01*
X020342Y016820D01*
X020342Y016582D01*
X020174Y016414D01*
X019936Y016414D01*
X019768Y016582D01*
X019876Y016627D01*
X019876Y016775D01*
X019981Y016880D01*
X020129Y016880D01*
X020234Y016775D01*
X020234Y016627D01*
X020129Y016522D01*
X019981Y016522D01*
X019876Y016627D01*
X019984Y016671D01*
X019984Y016731D01*
X020025Y016772D01*
X020085Y016772D01*
X020126Y016731D01*
X020126Y016671D01*
X020085Y016630D01*
X020025Y016630D01*
X019984Y016671D01*
X020548Y017361D02*
X020476Y017289D01*
X020476Y017527D01*
X020644Y017695D01*
X020882Y017695D01*
X021050Y017527D01*
X021050Y017289D01*
X020882Y017121D01*
X020644Y017121D01*
X020476Y017289D01*
X020584Y017334D01*
X020584Y017482D01*
X020689Y017587D01*
X020837Y017587D01*
X020942Y017482D01*
X020942Y017334D01*
X020837Y017229D01*
X020689Y017229D01*
X020584Y017334D01*
X020692Y017378D01*
X020692Y017438D01*
X020733Y017479D01*
X020793Y017479D01*
X020834Y017438D01*
X020834Y017378D01*
X020793Y017337D01*
X020733Y017337D01*
X020692Y017378D01*
D20*
X022159Y012605D03*
X024159Y012355D03*
X015159Y011355D03*
X010109Y011355D03*
X009159Y012355D03*
X010159Y012605D03*
D21*
X007159Y012055D03*
X021159Y012105D03*
M02*
