M48
INCH,TZ
T10C0.024
T11C0.032
T12C0.036
T13C0.037
T14C0.039
T15C0.040
T16C0.044
T17C0.091
T18C0.118
T19C0.130
%
T10
X010109Y011355
X009159Y012355
X010159Y012605
X007159Y012055
X015159Y011355
X021159Y012105
X022159Y012605
X024159Y012355
T11
X024159Y013405
X023159Y013405
X022159Y013405
X021159Y013405
X020159Y013405
X019159Y013405
X018159Y013405
X017159Y013405
X016159Y013405
X015159Y013405
X014159Y013405
X010159Y013105
X009159Y013105
X008159Y013105
X007159Y013105
X007159Y010605
X008159Y010605
X008159Y008955
X006159Y008955
X006109Y008005
X010109Y008005
X010909Y007105
X011909Y007105
X014159Y010405
X015159Y010405
X016159Y010405
X017159Y010405
X018159Y010405
X019159Y010405
X020159Y010405
X021159Y010405
X022159Y010405
X023159Y010405
X024159Y010405
X025159Y010405
X026159Y010405
X027159Y010405
X027159Y013405
X026159Y013405
X025159Y013405
X020055Y016701
X019513Y017458
X018805Y016751
X020763Y017408
X019859Y015105
X017959Y015105
X011409Y019555
X010159Y018605
X010159Y017855
X010159Y017105
X009159Y017105
X008159Y017105
X007159Y017105
X007159Y017855
X007159Y018605
X007409Y019555
X007409Y020805
X008409Y020805
X018409Y009355
X019159Y009355
X021159Y009355
X018409Y005355
X007159Y004605
X007159Y003605
T12
X009159Y009355
X009159Y010355
X009159Y011355
X006159Y012105
X006159Y013105
X006159Y014105
T13
X006013Y017113
X005226Y017113
X005226Y018097
X006013Y018097
T14
X005533Y003605
X003112Y003605
X004352Y001636
T15
X004659Y006105
X003659Y006105
X002659Y006105
X015159Y001605
X016159Y001605
X017159Y001605
X018159Y001605
X019159Y001605
X021159Y001605
X022159Y001605
X023159Y001605
X024159Y001605
X025159Y001605
X026159Y001605
X027119Y017075
X028899Y017075
X028899Y019635
X027119Y019635
X026159Y020605
X025159Y020605
X024159Y020605
X023159Y020605
X022159Y020605
X021159Y020605
X020159Y020605
X019159Y020605
X017159Y020605
X016159Y020605
X015159Y020605
X014159Y020605
X013159Y020605
X012159Y020605
X011159Y020605
X010159Y020605
T16
X010059Y002455
X006059Y002455
T17
X004159Y015235
X004159Y019975
T18
X001409Y000855
X028909Y000855
X028909Y021355
X001409Y021355
T19
X003659Y012005
M30

